<?xml version="1.0" encoding="UTF-8" standalone="no"?>
<!-- Created with Inkscape (http://www.inkscape.org/) -->
<svg
   xmlns:dc="http://purl.org/dc/elements/1.1/"
   xmlns:cc="http://creativecommons.org/ns#"
   xmlns:rdf="http://www.w3.org/1999/02/22-rdf-syntax-ns#"
   xmlns:svg="http://www.w3.org/2000/svg"
   xmlns="http://www.w3.org/2000/svg"
   xmlns:sodipodi="http://sodipodi.sourceforge.net/DTD/sodipodi-0.dtd"
   xmlns:inkscape="http://www.inkscape.org/namespaces/inkscape"
   width="744.09448819"
   height="1052.3622047"
   id="svg2"
   sodipodi:version="0.32"
   inkscape:version="0.46"
   sodipodi:docname="noimage.svg"
   inkscape:output_extension="org.inkscape.output.svg.inkscape"
   inkscape:export-filename="/home/james/projects/cocktailkeep/cocktailkeep-gui/cocktailkeep/data/noimage.png"
   inkscape:export-xdpi="23.629576"
   inkscape:export-ydpi="23.629576">
  <defs
     id="defs4">
    <inkscape:perspective
       sodipodi:type="inkscape:persp3d"
       inkscape:vp_x="0 : 526.18109 : 1"
       inkscape:vp_y="0 : 1000 : 0"
       inkscape:vp_z="744.09448 : 526.18109 : 1"
       inkscape:persp3d-origin="372.04724 : 350.78739 : 1"
       id="perspective10" />
    <inkscape:perspective
       id="perspective2447"
       inkscape:persp3d-origin="372.04724 : 350.78739 : 1"
       inkscape:vp_z="744.09448 : 526.18109 : 1"
       inkscape:vp_y="0 : 1000 : 0"
       inkscape:vp_x="0 : 526.18109 : 1"
       sodipodi:type="inkscape:persp3d" />
  </defs>
  <sodipodi:namedview
     id="base"
     pagecolor="#ffffff"
     bordercolor="#666666"
     borderopacity="1.0"
     gridtolerance="10000"
     guidetolerance="10"
     objecttolerance="10"
     inkscape:pageopacity="0.0"
     inkscape:pageshadow="2"
     inkscape:zoom="0.865"
     inkscape:cx="218.94767"
     inkscape:cy="747.90409"
     inkscape:document-units="px"
     inkscape:current-layer="layer1"
     showgrid="false"
     inkscape:window-width="1280"
     inkscape:window-height="725"
     inkscape:window-x="0"
     inkscape:window-y="25" />
  <metadata
     id="metadata7">
    <rdf:RDF>
      <cc:Work
         rdf:about="">
        <dc:format>image/svg+xml</dc:format>
        <dc:type
           rdf:resource="http://purl.org/dc/dcmitype/StillImage" />
      </cc:Work>
    </rdf:RDF>
  </metadata>
  <g
     inkscape:label="Layer 1"
     inkscape:groupmode="layer"
     id="layer1">
    <path
       sodipodi:type="arc"
       style="opacity:1;fill:#ffffff;fill-opacity:1;stroke:#000000;stroke-width:4;stroke-miterlimit:4;stroke-dasharray:none;stroke-opacity:1"
       id="path3169"
       sodipodi:cx="415.0289"
       sodipodi:cy="254.67432"
       sodipodi:rx="188.4393"
       sodipodi:ry="188.4393"
       d="M 603.4682,254.67432 A 188.4393,188.4393 0 1 1 226.5896,254.67432 A 188.4393,188.4393 0 1 1 603.4682,254.67432 z"
       transform="translate(-49.710983,-1.1560693)" />
    <path
       style="fill:none;fill-rule:evenodd;stroke:#000000;stroke-width:1;stroke-linecap:butt;stroke-linejoin:miter;stroke-miterlimit:4;stroke-dasharray:none;stroke-opacity:1;opacity:0.4"
       d="M 466.4177,118.5085 C 466.4373,118.57212 466.44716,118.63593 466.44716,118.69992 L 466.44716,118.69992 C 466.44716,123.03706 421.16716,126.55706 365.37573,126.55706 C 309.5843,126.55706 264.3043,123.03706 264.3043,118.69992 C 264.3043,118.63593 264.31416,118.57212 264.33376,118.5085"
       id="path3274" />
    <path
       style="fill:none;fill-opacity:1;fill-rule:evenodd;stroke:#000000;stroke-width:2;stroke-linecap:butt;stroke-linejoin:miter;stroke-opacity:1;stroke-miterlimit:4;stroke-dasharray:none;opacity:0.4"
       d="M 264.33376,118.5085 C 265.64264,114.25968 310.4074,110.84277 365.37573,110.84277 C 420.34406,110.84277 465.10882,114.25968 466.4177,118.5085"
       id="path2453" />
    <path
       style="fill:none;fill-rule:evenodd;stroke:#000000;stroke-width:2;stroke-linecap:butt;stroke-linejoin:miter;stroke-opacity:1;stroke-miterlimit:4;stroke-dasharray:none;opacity:0.4"
       d="M 264.30429,119.05706 L 355.37572,248.69992 L 355.37572,248.69992 L 355.37572,248.69992"
       id="path3229" />
    <path
       style="fill:none;fill-rule:evenodd;stroke:#000000;stroke-width:2;stroke-linecap:butt;stroke-linejoin:miter;stroke-opacity:1;stroke-miterlimit:4;stroke-dasharray:none;opacity:0.4"
       d="M 466.44715,119.05706 L 373.23286,248.69992 L 373.23286,248.69992"
       id="path3231" />
    <path
       style="fill:none;fill-rule:evenodd;stroke:#000000;stroke-width:2;stroke-linecap:butt;stroke-linejoin:miter;stroke-opacity:1;stroke-miterlimit:4;stroke-dasharray:none;opacity:0.4"
       d="M 373.59,248.34278 C 365.32447,291.67611 369.38689,335.00944 367.87572,378.34277 C 369.4042,383.262 371.1758,387.69498 371.80429,394.4142 L 371.80429,394.4142"
       id="path3235"
       sodipodi:nodetypes="cccc" />
    <path
       style="fill:none;fill-rule:evenodd;stroke:#000000;stroke-width:2;stroke-linecap:butt;stroke-linejoin:miter;stroke-opacity:1;stroke-miterlimit:4;stroke-dasharray:none;opacity:0.4"
       d="M 355.37572,249.05706 C 359.03784,289.73308 356.89186,334.76519 357.16143,377.98563 C 355.37572,380.29638 352.87571,382.27332 351.09,392.98563"
       id="path3241"
       sodipodi:nodetypes="ccc" />
    <path
       style="fill:none;fill-rule:evenodd;stroke:#000000;stroke-width:1;stroke-linecap:butt;stroke-linejoin:miter;stroke-miterlimit:4;stroke-dasharray:none;stroke-opacity:1;opacity:0.4"
       d="M 373.59001,248.34277 C 368.32008,242.75072 363.0748,237.00261 355.01858,249.05706 L 373.59001,248.34277 z"
       id="path3243"
       sodipodi:nodetypes="cc" />
    <path
       sodipodi:type="arc"
       style="opacity:0.4;fill:none;stroke:#000000;stroke-width:1.30522518000000010;stroke-miterlimit:4;stroke-dasharray:none;stroke-opacity:1"
       sodipodi:cx="165.17857"
       sodipodi:cy="338.96933"
       sodipodi:rx="67.321426"
       sodipodi:ry="6.25"
       d="M 187.92375,333.08685 A 67.321426,6.25 0 1 1 142.94791,333.06992"
       transform="matrix(0.9988646,0,0,1.3306273,195.92041,-45.734777)"
       sodipodi:start="5.0570306"
       sodipodi:end="10.659041"
       sodipodi:open="true"
       id="path16" />
    <path
       style="fill:none;fill-rule:evenodd;stroke:#000000;stroke-width:2;stroke-linecap:butt;stroke-linejoin:miter;stroke-opacity:1;stroke-miterlimit:4;stroke-dasharray:none;opacity:0.4"
       d="M 351.80429,392.98563 L 325.01858,402.27134"
       id="path3249"
       sodipodi:nodetypes="cc" />
    <path
       style="fill:none;fill-rule:evenodd;stroke:#000000;stroke-width:1;stroke-linecap:butt;stroke-linejoin:miter;stroke-miterlimit:4;stroke-dasharray:none;stroke-opacity:1;opacity:0.4"
       d="M 350.73287,393.52135 C 358.05825,396.16411 365.42867,397.11286 371.80429,394.05706"
       id="path3263"
       sodipodi:nodetypes="cc" />
    <path
       style="fill:none;fill-rule:evenodd;stroke:#000000;stroke-width:2;stroke-linecap:butt;stroke-linejoin:miter;stroke-opacity:1;stroke-miterlimit:4;stroke-dasharray:none;opacity:0.4"
       d="M 371.98286,393.7892 L 395.82215,400.93206"
       id="path3267" />
    <path
       style="fill:none;fill-rule:evenodd;stroke:#000000;stroke-width:1;stroke-linecap:butt;stroke-linejoin:miter;stroke-miterlimit:4;stroke-dasharray:none;stroke-opacity:1;opacity:0.4"
       d="M 325.28643,402.27134 C 344.94808,404.31354 361.41527,405.46115 395.64358,400.93206"
       id="path3269"
       sodipodi:nodetypes="cc" />
    <path
       style="fill:none;fill-rule:evenodd;stroke:#000000;stroke-width:1;stroke-linecap:butt;stroke-linejoin:miter;stroke-miterlimit:4;stroke-dasharray:none;stroke-opacity:1;opacity:0.4"
       d="M 332.69715,216.19991 C 357.2412,240.05828 368.10157,241.62604 395.19715,217.80706"
       id="path3276"
       sodipodi:nodetypes="cc" />
    <path
       style="fill:none;fill-rule:evenodd;stroke:#000000;stroke-width:2;stroke-linecap:butt;stroke-linejoin:miter;stroke-opacity:1;stroke-miterlimit:4;stroke-dasharray:none;opacity:0.4"
       d="M 347.60786,219.05706 C 350.71706,214.76788 354.99298,211.77296 362.69715,209.86063 C 366.62298,208.88616 370.72247,208.90605 375.19715,209.68206 C 384.96711,211.37639 386.17929,215.54293 386.17929,219.50349 L 386.17929,224.14634 C 378.88923,229.91597 373.6823,231.92337 369.66143,232.80706 C 365.66805,233.68471 361.3596,233.45858 357.87572,232.62849 C 352.298,231.29952 348.67078,228.67219 347.42929,224.4142 C 346.97718,222.86358 345.95342,221.33937 347.60786,219.05706 z"
       id="path3278"
       sodipodi:nodetypes="cssssssss" />
    <path
       style="fill:none;fill-rule:evenodd;stroke:#000000;stroke-width:1;stroke-linecap:butt;stroke-linejoin:miter;stroke-miterlimit:4;stroke-dasharray:none;stroke-opacity:1;opacity:0.4"
       d="M 351.35786,222.00349 C 353.73797,218.49816 357.06203,218.08155 361.09001,218.34277 C 362.97508,220.17089 364.77964,220.86801 364.39358,226.55706 C 362.97814,227.91336 363.20241,228.86464 355.10786,228.43206 C 352.47634,226.64773 351.85768,225.31626 351.35786,222.00349 z"
       id="path3280"
       sodipodi:nodetypes="ccccc" />
    <path
       style="opacity:0.4;fill:none;fill-rule:evenodd;stroke:#000000;stroke-width:2;stroke-linecap:butt;stroke-linejoin:miter;stroke-opacity:1;stroke-miterlimit:4;stroke-dasharray:none"
       d="M 278.59001,138.87849 C 283.06173,133.05224 331.4448,135.01671 362.34001,133.87849 C 393.93955,135.85987 443.18187,133.88684 450.19715,141.37849"
       id="path3282"
       sodipodi:nodetypes="ccc" />
    <text
       xml:space="preserve"
       style="font-size:56px;font-style:normal;font-variant:normal;font-weight:normal;font-stretch:normal;fill:#000000;fill-opacity:1;stroke:none;stroke-width:1px;stroke-linecap:butt;stroke-linejoin:miter;stroke-opacity:1;font-family:Sans;-inkscape-font-specification:Sans"
       x="230.05782"
       y="277.79568"
       id="text3167"><tspan
         sodipodi:role="line"
         id="tspan3169"
         x="230.05782"
         y="277.79568">No image</tspan></text>
  </g>
</svg>
